<?xml version="1.0" standalone="no"?>
<!DOCTYPE svg PUBLIC "-//W3C//DTD SVG 20010904//EN"
 "http://www.w3.org/TR/2001/REC-SVG-20010904/DTD/svg10.dtd">
<svg version="1.0" xmlns="http://www.w3.org/2000/svg"
 width="64.000000pt" height="64.000000pt" viewBox="0 0 64.000000 64.000000"
 preserveAspectRatio="xMidYMid meet">

<g transform="translate(0.000000,64.000000) scale(0.100000,-0.100000)"
fill="#000000" stroke="none">
<path d="M107 612 c-12 -13 -16 -34 -15 -68 l1 -49 4 45 c7 76 16 80 168 80
l132 0 5 -51 c6 -64 23 -81 87 -87 l51 -5 0 -212 c0 -193 -2 -213 -18 -228
-16 -15 -45 -17 -198 -17 -140 0 -185 3 -200 14 -17 13 -19 31 -24 223 l-6
208 -2 -211 c-2 -193 0 -212 16 -227 16 -15 46 -17 214 -17 176 0 196 2 211
18 15 16 17 49 17 248 l0 230 -63 62 -63 62 -150 0 c-133 0 -153 -2 -167 -18z"/>
<path d="M242 564 c-26 -18 -29 -56 -6 -78 19 -20 38 -20 54 -2 10 13 7 15
-17 13 -23 -2 -29 3 -31 22 -9 60 57 50 83 -12 l17 -42 19 40 c19 40 25 75 12
61 -5 -4 -13 -22 -19 -39 l-11 -32 -13 38 c-8 20 -19 36 -25 33 -5 -2 -17 0
-26 5 -10 5 -24 2 -37 -7z"/>
<path d="M175 406 c-11 -17 -13 -30 -6 -48 7 -19 5 -27 -10 -36 -25 -16 -24
-48 0 -62 47 -25 141 -5 141 30 0 12 -29 40 -43 40 -8 0 -7 4 1 12 17 17 15
54 -4 72 -23 24 -61 20 -79 -8z"/>
<path d="M338 393 c12 -2 32 -2 45 0 12 2 2 4 -23 4 -25 0 -35 -2 -22 -4z"/>
<path d="M368 333 c23 -2 59 -2 80 0 20 2 1 4 -43 4 -44 0 -61 -2 -37 -4z"/>
<path d="M330 270 c0 -6 35 -10 85 -10 50 0 85 4 85 10 0 6 -35 10 -85 10 -50
0 -85 -4 -85 -10z"/>
<path d="M140 210 c0 -5 18 -10 40 -10 22 0 40 5 40 10 0 6 -18 10 -40 10 -22
0 -40 -4 -40 -10z"/>
<path d="M265 210 c-4 -6 37 -10 115 -10 78 0 119 4 115 10 -4 6 -53 10 -115
10 -62 0 -111 -4 -115 -10z"/>
<path d="M163 143 c15 -2 37 -2 50 0 12 2 0 4 -28 4 -27 0 -38 -2 -22 -4z"/>
<path d="M318 143 c34 -2 90 -2 125 0 34 2 6 3 -63 3 -69 0 -97 -1 -62 -3z"/>
<path d="M145 80 c3 -5 22 -10 41 -10 19 0 34 5 34 10 0 6 -18 10 -41 10 -24
0 -38 -4 -34 -10z"/>
<path d="M266 82 c5 -5 61 -5 124 -2 l115 7 -124 1 c-69 1 -121 -2 -115 -6z"/>
</g>
</svg>
